<svg xmlns="http://www.w3.org/2000/svg" version="1.1" xmlns:xlink="http://www.w3.org/1999/xlink" xmlns:svgjs="http://svgjs.dev/svgjs" width="1000" height="1000" viewBox="0 0 1000 1000"><rect width="1000" height="1000" fill="#ffffff"></rect><g transform="matrix(0.7,0,0,0.7,149.61065318904372,247.50462049589768)"><svg viewBox="0 0 342 247" data-background-color="#ffffff" preserveAspectRatio="xMidYMid meet" height="722" width="1000" xmlns="http://www.w3.org/2000/svg" xmlns:xlink="http://www.w3.org/1999/xlink"><g id="tight-bounds" transform="matrix(1,0,0,1,0.1902237276386245,-0.10000249799512062)"><svg viewBox="0 0 341.61955254472275 247.2" height="247.2" width="341.61955254472275"><g><svg viewBox="0 0 341.61955254472275 247.2" height="247.2" width="341.61955254472275"><g transform="matrix(1,0,0,1,174.63677108776912,0)"><svg viewBox="0 0 166.98278145695363 247.2" height="247.2" width="166.98278145695363"><g id="textblocktransform"><svg viewBox="0 0 166.98278145695363 247.2" height="247.2" width="166.98278145695363" id="textblock"><g><svg viewBox="0 0 166.98278145695363 247.2" height="247.2" width="166.98278145695363"><g transform="matrix(1,0,0,1,0,0)"><svg width="166.98278145695363" viewBox="2 -37.45000076293945 25.5 37.75" height="247.2" data-palette-color="#8abe53"><path d="M15.55 0.3L15.55 0.3Q12.35 0.3 9.88-0.45 7.4-1.2 5.63-3.2 3.85-5.2 2.93-8.95 2-12.7 2-18.65L2-18.65Q2-24.45 2.98-28.13 3.95-31.8 5.73-33.83 7.5-35.85 10-36.65 12.5-37.45 15.6-37.45L15.6-37.45Q18.4-37.45 20.7-37.15 23-36.85 24.7-36.43 26.4-36 27.5-35.55L27.5-35.55 27.5-28.85Q26.55-29.05 25.05-29.25 23.55-29.45 21.6-29.58 19.65-29.7 17.45-29.7L17.45-29.7Q15.6-29.7 14.28-29.3 12.95-28.9 12.18-27.73 11.4-26.55 11.03-24.35 10.65-22.15 10.65-18.6L10.65-18.6Q10.65-15.25 10.95-13.05 11.25-10.85 12-9.65 12.75-8.45 14.08-7.95 15.4-7.45 17.5-7.45L17.5-7.45Q21.3-7.45 23.68-7.6 26.05-7.75 27.5-7.95L27.5-7.95 27.5-1.25Q26.2-0.75 24.5-0.43 22.8-0.1 20.6 0.1 18.4 0.3 15.55 0.3Z" opacity="1" transform="matrix(1,0,0,1,0,0)" fill="#8abe53" class="undefined-text-0" data-fill-palette-color="primary" id="text-0"></path></svg></g></svg></g></svg></g></svg></g><g transform="matrix(1,0,0,1,0,94.63960165611543)"><svg viewBox="0 0 57.92079668776913 57.92079668776913" height="57.92079668776913" width="57.92079668776913"><g><svg></svg></g><g id="icon-0"><svg viewBox="0 0 57.92079668776913 57.92079668776913" height="57.92079668776913" width="57.92079668776913"><g><path d="M0 28.96c0-15.994 12.966-28.96 28.96-28.96 15.994 0 28.96 12.966 28.961 28.96 0 15.994-12.966 28.96-28.961 28.961-15.994 0-28.96-12.966-28.96-28.961zM28.96 35.628c3.682 0 6.668-2.985 6.668-6.668 0-3.682-2.985-6.668-6.668-6.667-3.682 0-6.668 2.985-6.667 6.667 0 3.682 2.985 6.668 6.667 6.668z" data-fill-palette-color="accent" fill="#6b7280" stroke="transparent"></path></g><g transform="matrix(1,0,0,1,47.12656040741717,47.12656040741717)"><svg viewBox="0 0 -36.33232412706522 -36.33232412706522" height="-36.33232412706522" width="-36.33232412706522"><g><svg xmlns="http://www.w3.org/2000/svg" xmlns:xlink="http://www.w3.org/1999/xlink" version="1.1" x="0" y="0" viewBox="22 22 468 468" style="enable-background:new 0 0 512 512;" xml:space="preserve" height="-36.33232412706522" width="-36.33232412706522" class="icon-s-0" data-fill-palette-color="accent" id="s-0"><g fill="#6b7280" data-fill-palette-color="accent"><g fill="#6b7280" data-fill-palette-color="accent"><g fill="#6b7280" data-fill-palette-color="accent"><path d="M486 490H26c-2.209 0-4-1.791-4-4V26c0-2.209 1.791-4 4-4h460c2.209 0 4 1.791 4 4v460C490 488.209 488.209 490 486 490zM30 482h452V30H30V482z" fill="#6b7280" data-fill-palette-color="accent"></path></g><g fill="#6b7280" data-fill-palette-color="accent"><path d="M486 110H26c-2.209 0-4-1.791-4-4s1.791-4 4-4h460c2.209 0 4 1.791 4 4S488.209 110 486 110z" fill="#6b7280" data-fill-palette-color="accent"></path></g><g fill="#6b7280" data-fill-palette-color="accent"><path d="M446 70H266c-2.209 0-4-1.791-4-4s1.791-4 4-4h180c2.209 0 4 1.791 4 4S448.209 70 446 70z" fill="#6b7280" data-fill-palette-color="accent"></path></g><g fill="#6b7280" data-fill-palette-color="accent"><path d="M86 70H66c-2.209 0-4-1.791-4-4s1.791-4 4-4h20c2.209 0 4 1.791 4 4S88.209 70 86 70z" fill="#6b7280" data-fill-palette-color="accent"></path></g><g fill="#6b7280" data-fill-palette-color="accent"><path d="M176 70h-20c-2.209 0-4-1.791-4-4s1.791-4 4-4h20c2.209 0 4 1.791 4 4S178.209 70 176 70z" fill="#6b7280" data-fill-palette-color="accent"></path></g><g fill="#6b7280" data-fill-palette-color="accent"><path d="M266 380H86c-2.209 0-4-1.791-4-4V196c0-2.209 1.791-4 4-4h180c2.209 0 4 1.791 4 4v180C270 378.209 268.209 380 266 380zM90 372h172V200H90V372z" fill="#6b7280" data-fill-palette-color="accent"></path></g><g fill="#6b7280" data-fill-palette-color="accent"><path d="M266 260H86c-2.209 0-4-1.791-4-4v-60c0-2.209 1.791-4 4-4h180c2.209 0 4 1.791 4 4v60C270 258.209 268.209 260 266 260zM90 252h172v-52H90V252z" fill="#6b7280" data-fill-palette-color="accent"></path></g><g fill="#6b7280" data-fill-palette-color="accent"><path d="M146 340c-1.024 0-2.047-0.391-2.829-1.172l-20-20c-1.562-1.563-1.562-4.096 0-5.656l20-20c1.563-1.563 4.095-1.563 5.657 0s1.562 4.096 0 5.656L131.657 316l17.172 17.172c1.562 1.563 1.562 4.096 0 5.656C148.047 339.609 147.024 340 146 340z" fill="#6b7280" data-fill-palette-color="accent"></path></g><g fill="#6b7280" data-fill-palette-color="accent"><path d="M206 340c-1.024 0-2.047-0.391-2.829-1.172-1.562-1.563-1.562-4.096 0-5.656L220.343 316l-17.172-17.172c-1.562-1.563-1.562-4.096 0-5.656 1.563-1.563 4.095-1.563 5.657 0l20 20c1.562 1.563 1.562 4.096 0 5.656l-20 20C208.047 339.609 207.024 340 206 340z" fill="#6b7280" data-fill-palette-color="accent"></path></g><rect x="116" y="216" width="20" height="20" fill="#6b7280" data-fill-palette-color="accent"></rect><rect x="156" y="216" width="20" height="20" fill="#6b7280" data-fill-palette-color="accent"></rect><g fill="#6b7280" data-fill-palette-color="accent"><path d="M376 200h-60c-2.209 0-4-1.791-4-4s1.791-4 4-4h60c2.209 0 4 1.791 4 4S378.209 200 376 200z" fill="#6b7280" data-fill-palette-color="accent"></path></g><g fill="#6b7280" data-fill-palette-color="accent"><path d="M426 240H316c-2.209 0-4-1.791-4-4s1.791-4 4-4h110c2.209 0 4 1.791 4 4S428.209 240 426 240z" fill="#6b7280" data-fill-palette-color="accent"></path></g><g fill="#6b7280" data-fill-palette-color="accent"><path d="M317.815 318.958c0-2.868 0.515-5.728 1.547-8.574 1.029-2.847 2.53-5.391 4.506-7.633 1.972-2.241 4.382-4.058 7.228-5.446 2.849-1.39 6.086-2.084 9.72-2.084 4.259 0 7.957 0.965 11.096 2.891 3.138 1.93 5.469 4.439 6.994 7.531l-8.476 5.918c-0.494-1.254-1.121-2.297-1.883-3.127-0.763-0.828-1.592-1.5-2.488-2.018-0.896-0.516-1.825-0.874-2.791-1.076-0.964-0.201-1.87-0.302-2.724-0.302-1.973 0-3.676 0.426-5.11 1.276-1.436 0.854-2.623 1.951-3.563 3.295-0.941 1.346-1.647 2.871-2.118 4.574-0.471 1.702-0.706 3.43-0.706 5.178 0 1.883 0.279 3.699 0.841 5.447s1.347 3.295 2.354 4.64c1.009 1.346 2.229 2.411 3.665 3.194 1.434 0.784 3.024 1.176 4.772 1.176 0.897 0 1.826-0.123 2.791-0.368 0.964-0.246 1.896-0.628 2.791-1.144 0.897-0.517 1.703-1.188 2.421-2.02 0.719-0.829 1.302-1.852 1.748-3.061l9.078 5.313c-0.717 1.748-1.76 3.317-3.127 4.707-1.368 1.391-2.925 2.557-4.673 3.497-1.749 0.939-3.599 1.658-5.549 2.15s-3.866 0.74-5.749 0.74c-3.318 0-6.355-0.707-9.112-2.119s-5.134-3.283-7.128-5.615c-1.996-2.328-3.554-4.977-4.674-7.934C318.376 325.011 317.815 322.007 317.815 318.958z" fill="#6b7280" data-fill-palette-color="accent"></path><path d="M386.072 315.059v8.606h-6.321v6.994h-9.685v-6.994h-6.39v-8.606h6.39v-6.994h9.685v6.994H386.072z" fill="#6b7280" data-fill-palette-color="accent"></path><path d="M414.72 315.059v8.606H408.4v6.994h-9.686v-6.994h-6.388v-8.606h6.388v-6.994h9.686v6.994H414.72z" fill="#6b7280" data-fill-palette-color="accent"></path></g></g></g></svg></g></svg></g></svg></g></svg></g></svg></g><defs></defs></svg><rect width="341.61955254472275" height="247.2" fill="none" stroke="none" visibility="hidden"></rect></g></svg></g></svg>